<?xml version="1.0" encoding="utf-8"?>
<!-- Generator: Adobe Illustrator 16.0.0, SVG Export Plug-In . SVG Version: 6.00 Build 0)  -->
<!DOCTYPE svg PUBLIC "-//W3C//DTD SVG 1.1//EN" "http://www.w3.org/Graphics/SVG/1.1/DTD/svg11.dtd">
<svg version="1.1" id="Layer_1" xmlns="http://www.w3.org/2000/svg" xmlns:xlink="http://www.w3.org/1999/xlink" x="0px" y="0px"
	 width="612px" height="792px" viewBox="0 0 612 792" enable-background="new 0 0 612 792" xml:space="preserve">
<g>
	<path fill="#010101" d="M367.211,396.75c0,6.904-5.002,12.5-11.172,12.5h-97.656c-6.171,0-11.172-5.596-11.172-12.5l0,0
		c0-6.904,5.001-12.5,11.172-12.5h97.656C362.209,384.25,367.211,389.846,367.211,396.75L367.211,396.75z"/>
	<path fill="#010101" d="M367.211,359.5c0,6.904-5.002,12.5-11.172,12.5h-97.656c-6.171,0-11.172-5.596-11.172-12.5l0,0
		c0-6.904,5.001-12.5,11.172-12.5h97.656C362.209,347,367.211,352.596,367.211,359.5L367.211,359.5z"/>
	<path fill="#010101" d="M367.211,434c0,6.904-5.002,12.5-11.172,12.5h-97.656c-6.171,0-11.172-5.596-11.172-12.5l0,0
		c0-6.904,5.001-12.5,11.172-12.5h97.656C362.209,421.5,367.211,427.096,367.211,434L367.211,434z"/>
</g>
</svg>
