<?xml version="1.0" encoding="utf-8"?>
<!-- Generator: Adobe Illustrator 16.0.0, SVG Export Plug-In . SVG Version: 6.00 Build 0)  -->
<!DOCTYPE svg PUBLIC "-//W3C//DTD SVG 1.1//EN" "http://www.w3.org/Graphics/SVG/1.1/DTD/svg11.dtd">
<svg version="1.1" id="Layer_1" xmlns="http://www.w3.org/2000/svg" xmlns:xlink="http://www.w3.org/1999/xlink" x="0px" y="0px"
	 width="612px" height="792px" viewBox="0 0 612 792" enable-background="new 0 0 612 792" xml:space="preserve">
<path d="M50,0C22.386,0,0,22.386,0,50s22.386,50,50,50s50-22.386,50-50S77.614,0,50,0z M50,85c-19.33,0-35-15.67-35-35
	s15.67-35,35-35s35,15.67,35,35S69.33,85,50,85z"/>
<path d="M115.114,100.5c3.16,3.161,2.45,8.994-1.585,13.029l0,0c-4.035,4.036-9.869,4.745-13.029,1.585L74.582,89.195
	c-3.16-3.16-2.45-8.993,1.585-13.029l0,0c4.035-4.035,9.869-4.744,13.028-1.584L115.114,100.5z"/>
</svg>
